:SAMPLES-PER-SECOND 30
:FRAME-RANGE 1-663
:FULLY-SPECIFIED
:DEGREES
581
root  -30.8434 39.6905 -139.663 -170.74 35.6302 -178.848
RightUpLeg  -15.9469 9.20684 -0.980345
RightLeg  12.6559 15.5296 2.00515
RightFoot  -4.08393 -0.0624357 0.546602
RightToes  -3.4386e-010 1.2921e-014 -6.02303e-014
Spine  -4.90748 -4.21473 -0.992184
Spine1  9.69586 -3.93625 -1.57659
HEad  40.7039 -9.20485 -2.19183
LeftShoulder1  1.68172 -2.68347 -22.0011
LeftArm  2.36442 -7.62131 -49.5519
LeftForeArm  29.3212 5.297 -14.2229
LeftHand  -0.0145494 5.77325 3.81688
RightShoulder  0.83128 -0.747784 26.2979
RightArm  -24.079 -0.361269 49.2532
RightForeArm  63.394 -2.14716 4.75328
RightHand  0.22935 -6.94736 -18.149
LeftUpLeg  -13.5714 0.911723 -1.1046
LeftLeg  9.15417 5.77168 2.18256
LeftFoot  -2.75849 0.0445737 -0.264295
LeftToes  -7.12384e-010 -7.51861e-011 -8.34901e-011
582
root  -30.9032 39.6843 -139.78 -170.9 36.0614 -179.085
RightUpLeg  -16.0274 8.88157 -1.50043
RightLeg  12.9875 16.2805 2.52346
RightFoot  -4.19055 -0.0602578 0.50365
RightToes  -3.4386e-010 1.2921e-014 -6.02303e-014
Spine  -4.89489 -3.7686 -0.277408
Spine1  8.9987 -3.56351 -1.39872
HEad  41.6879 -8.87346 -3.59387
LeftShoulder1  1.88698 -3.16762 -23.1386
LeftArm  1.62449 -6.15615 -49.7882
LeftForeArm  29.1305 5.78709 -14.0639
LeftHand  -0.0100019 5.81858 4.49483
RightShoulder  1.14384 0.411156 24.5906
RightArm  -25.0893 -0.950045 49.778
RightForeArm  64.2197 -2.98345 4.16672
RightHand  0.0986851 -6.09714 -18.3145
LeftUpLeg  -13.2527 0.700241 -1.52872
LeftLeg  8.80009 6.38547 2.32817
LeftFoot  -2.74068 0.0452628 -0.270669
LeftToes  -7.12384e-010 -7.51861e-011 -8.34901e-011
583
root  -30.9225 39.6319 -139.859 -171.094 36.2008 -179.449
RightUpLeg  -16.6326 12.8304 -2.57678
RightLeg  13.944 12.3898 2.19305
RightFoot  -4.89162 -0.0769022 0.751042
RightToes  -3.4386e-010 1.2921e-014 -6.02303e-014
Spine  -5.03674 -3.57415 -0.297671
Spine1  8.82291 -3.51169 -0.841571
HEad  42.0593 -8.5821 -4.35554
LeftShoulder1  2.01975 -3.46927 -23.8384
LeftArm  0.604633 -4.56871 -50.1969
LeftForeArm  30.5801 5.584 -13.7305
LeftHand  -0.00943063 6.01261 3.57408
RightShoulder  1.15041 0.517573 23.8723
RightArm  -24.757 -0.647963 50.0009
RightForeArm  64.4558 -2.98854 4.30127
RightHand  0.345578 -7.81627 -17.3249
LeftUpLeg  -13.4209 0.477144 -1.96934
LeftLeg  9.33361 6.68739 2.50247
LeftFoot  -3.14022 0.0474138 -0.304289
LeftToes  -7.12384e-010 -7.51861e-011 -8.34901e-011
584
root  -30.938 39.6471 -139.934 -171.191 36.4412 -179.515
RightUpLeg  -16.3375 12.2344 -2.51242
RightLeg  13.705 13.2533 2.13335
RightFoot  -4.8612 -0.0749841 0.709781
RightToes  -3.4386e-010 1.2921e-014 -6.02303e-014
Spine  -5.1979 -3.67778 0.01985
Spine1  9.09091 -3.6087 -0.987608
HEad  41.9962 -7.76167 -4.12545
LeftShoulder1  1.92015 -3.23812 -23.3427
LeftArm  0.855941 -2.78655 -50.9613
LeftForeArm  28.7661 4.768 -13.8215
LeftHand  -0.0213446 5.48705 4.45081
RightShoulder  1.11376 0.317222 24.5495
RightArm  -23.6698 0.526663 49.7965
RightForeArm  64.279 -3.34712 4.7363
RightHand  0.352179 -7.83621 -17.484
LeftUpLeg  -13.1818 0.267424 -2.15472
LeftLeg  9.23002 7.12591 2.66107
LeftFoot  -3.16697 0.0508914 -0.362364
LeftToes  -7.12384e-010 -7.51861e-011 -8.34901e-011
585
root  -30.9413 39.666 -139.994 -171.361 36.8797 -179.554
RightUpLeg  -15.9696 11.1324 -2.27128
RightLeg  13.4788 14.6653 2.15915
RightFoot  -4.70191 -0.0443548 0.223554
RightToes  -3.4386e-010 1.2921e-014 -6.02303e-014
Spine  -5.18732 -3.61655 0.116807
Spine1  9.14741 -3.66321 -0.598108
HEad  42.2902 -7.14002 -4.2573
LeftShoulder1  1.89156 -3.06126 -23.728
LeftArm  1.12655 -1.56117 -50.9345
LeftForeArm  29.5364 4.25321 -13.8901
LeftHand  -0.0239311 5.43609 3.85758
RightShoulder  1.14847 0.425613 24.5968
RightArm  -22.8708 0.935605 49.8504
RightForeArm  64.1636 -3.13754 5.16611
RightHand  0.252714 -7.15467 -17.6245
LeftUpLeg  -12.8024 0.0860446 -2.28589
LeftLeg  9.04883 7.77769 2.81751
LeftFoot  -3.1893 0.0545642 -0.426633
LeftToes  -7.12384e-010 -7.51861e-011 -8.34901e-011
586
root  -30.9287 39.6597 -140.035 -171.281 37.3762 -179.374
RightUpLeg  -15.861 10.5773 -2.02305
RightLeg  13.4039 15.9437 2.32562
RightFoot  -4.75343 -0.0613265 0.478173
RightToes  -3.4386e-010 1.2921e-014 -6.02303e-014
Spine  -5.37971 -3.57298 0.529782
Spine1  9.32046 -3.6336 -0.654608
HEad  42.7764 -6.45373 -4.2307
LeftShoulder1  1.84587 -2.88136 -23.8592
LeftArm  1.09403 -0.582528 -51.0581
LeftForeArm  30.3915 4.14654 -13.87
LeftHand  -0.0215831 5.52765 3.74865
RightShoulder  1.11821 0.306469 24.7758
RightArm  -22.5038 1.28305 50.2306
RightForeArm  64.5235 -3.04696 5.34912
RightHand  0.0879496 -6.03723 -18.1138
LeftUpLeg  -12.7628 0.0619162 -2.15846
LeftLeg  9.23537 8.20387 2.93903
LeftFoot  -3.40425 0.0543985 -0.433722
LeftToes  -7.12384e-010 -7.51861e-011 -8.34901e-011
